# xmcd
#
# Track frame offsets: 
#        150
#        8571
#        23642
#        43142
#        55412
#        70913
#        85823
#        94908
#        110747
#        129151
#        147459
#        162214
#        179065
#
# Disc length: 2634 seconds
#
# Revision: 0
# Processed by: cddbd v1.5.2PL0 Copyright (c) Steve Scherf et al.
# Submitted via: ExactAudioCopyFreeDBPlugin 1.0
#
DISCID=b10a480d
DTITLE=Mark Evenchick - Incident at the Hang Dog Saloon
DYEAR=2011
DGENRE=Folk
TTITLE0=Three Chord Song
TTITLE1=Two Hundred Miles More
TTITLE2=Peaceful  Slumber There
TTITLE3=Pickup Truck
TTITLE4=A Light of a Much Brighter Kind
TTITLE5=Smokin' on the Back Porch in the Rain
TTITLE6=A line Upon a Page
TTITLE7=The Gulf of Mexico
TTITLE8=Buddy's Girl
TTITLE9=Driving Shoes
TTITLE10=So in Love So Long Ago
TTITLE11=The Mighty Mississippi
TTITLE12=Closing Time
EXTD=
EXTT0=
EXTT1=
EXTT2=
EXTT3=
EXTT4=
EXTT5=
EXTT6=
EXTT7=
EXTT8=
EXTT9=
EXTT10=
EXTT11=
EXTT12=
PLAYORDER=
